<mxfile host="65bd71144e">
    <diagram id="beZrXekvjPEQonsoAEPs" name="Page-1">
        <mxGraphModel dx="732" dy="567" grid="1" gridSize="10" guides="1" tooltips="1" connect="1" arrows="1" fold="1" page="1" pageScale="1" pageWidth="2336" pageHeight="1654" math="0" shadow="0">
            <root>
                <mxCell id="0"/>
                <mxCell id="1" parent="0"/>
                <mxCell id="2" value="Order" style="swimlane;childLayout=stackLayout;resizeParent=1;resizeParentMax=0;horizontal=1;startSize=20;horizontalStack=0;strokeColor=#2D7600;fillColor=#60a917;fontColor=#ffffff;strokeWidth=4;shadow=0;rounded=0;" parent="1" vertex="1">
                    <mxGeometry x="80" y="100" width="2190" height="730" as="geometry"/>
                </mxCell>
                <mxCell id="4" style="edgeStyle=orthogonalEdgeStyle;rounded=0;orthogonalLoop=1;jettySize=auto;html=1;exitX=1;exitY=0.5;exitDx=0;exitDy=0;entryX=0.5;entryY=1;entryDx=0;entryDy=0;" parent="2" source="51" target="45" edge="1">
                    <mxGeometry relative="1" as="geometry"/>
                </mxCell>
                <mxCell id="7" value="customer" style="swimlane;startSize=20;horizontal=0;fillColor=#f0a30a;fontColor=#000000;strokeColor=#BD7000;" parent="2" vertex="1">
                    <mxGeometry y="20" width="2190" height="270" as="geometry">
                        <mxRectangle x="20" width="1860" height="20" as="alternateBounds"/>
                    </mxGeometry>
                </mxCell>
                <mxCell id="8" value="" style="edgeStyle=orthogonalEdgeStyle;rounded=0;orthogonalLoop=1;jettySize=auto;html=1;" parent="7" source="9" target="11" edge="1">
                    <mxGeometry relative="1" as="geometry"/>
                </mxCell>
                <mxCell id="9" value="&lt;font style=&quot;font-size: 24px&quot;&gt;شروع&lt;/font&gt;" style="ellipse;whiteSpace=wrap;html=1;aspect=fixed;fillColor=#0050ef;strokeColor=#001DBC;fontColor=#ffffff;" parent="7" vertex="1">
                    <mxGeometry x="40" y="75" width="75" height="75" as="geometry"/>
                </mxCell>
                <mxCell id="10" value="" style="edgeStyle=orthogonalEdgeStyle;rounded=0;orthogonalLoop=1;jettySize=auto;html=1;" parent="7" source="11" target="13" edge="1">
                    <mxGeometry relative="1" as="geometry">
                        <Array as="points">
                            <mxPoint x="264" y="115"/>
                            <mxPoint x="264" y="115"/>
                        </Array>
                    </mxGeometry>
                </mxCell>
                <mxCell id="11" value="&lt;font style=&quot;font-size: 15px&quot;&gt;ثبت سفارش خارجی&lt;/font&gt;" style="whiteSpace=wrap;html=1;fillColor=#60a917;strokeColor=#2D7600;fontColor=#ffffff;" parent="7" vertex="1">
                    <mxGeometry x="154" y="77.5" width="100" height="70" as="geometry"/>
                </mxCell>
                <mxCell id="12" value="" style="edgeStyle=orthogonalEdgeStyle;rounded=0;orthogonalLoop=1;jettySize=auto;html=1;" parent="7" source="13" target="15" edge="1">
                    <mxGeometry relative="1" as="geometry"/>
                </mxCell>
                <mxCell id="13" value="&lt;font style=&quot;font-size: 17px&quot;&gt;ثبت آدرس فرستنده&lt;/font&gt;" style="whiteSpace=wrap;html=1;fillColor=#60a917;strokeColor=#2D7600;fontColor=#ffffff;" parent="7" vertex="1">
                    <mxGeometry x="300" y="85" width="120" height="60" as="geometry"/>
                </mxCell>
                <mxCell id="14" value="" style="edgeStyle=orthogonalEdgeStyle;rounded=0;orthogonalLoop=1;jettySize=auto;html=1;" parent="7" source="15" target="17" edge="1">
                    <mxGeometry relative="1" as="geometry"/>
                </mxCell>
                <mxCell id="15" value="اطلاعات مرسوله" style="whiteSpace=wrap;html=1;fillColor=#60a917;strokeColor=#2D7600;fontColor=#ffffff;" parent="7" vertex="1">
                    <mxGeometry x="450" y="85" width="90" height="60" as="geometry"/>
                </mxCell>
                <mxCell id="16" value="" style="edgeStyle=orthogonalEdgeStyle;rounded=0;orthogonalLoop=1;jettySize=auto;html=1;" parent="7" source="17" target="18" edge="1">
                    <mxGeometry relative="1" as="geometry"/>
                </mxCell>
                <mxCell id="17" value="وارد کردن عکس مرسولات" style="whiteSpace=wrap;html=1;fillColor=#60a917;strokeColor=#2D7600;fontColor=#ffffff;" parent="7" vertex="1">
                    <mxGeometry x="570" y="85" width="120" height="60" as="geometry"/>
                </mxCell>
                <mxCell id="97" style="edgeStyle=orthogonalEdgeStyle;rounded=0;orthogonalLoop=1;jettySize=auto;html=1;exitX=0.5;exitY=1;exitDx=0;exitDy=0;entryX=0.5;entryY=0;entryDx=0;entryDy=0;" parent="7" source="18" target="96" edge="1">
                    <mxGeometry relative="1" as="geometry"/>
                </mxCell>
                <mxCell id="18" value="ثبت آدرس گیرنده&amp;nbsp;" style="whiteSpace=wrap;html=1;fillColor=#60a917;strokeColor=#2D7600;fontColor=#ffffff;" parent="7" vertex="1">
                    <mxGeometry x="744" y="85" width="120" height="60" as="geometry"/>
                </mxCell>
                <mxCell id="19" value="&lt;font style=&quot;font-size: 18px&quot;&gt;انتخاب خدمات&lt;/font&gt;" style="rounded=0;whiteSpace=wrap;html=1;fillColor=#60a917;strokeColor=#2D7600;fontColor=#ffffff;" parent="7" vertex="1">
                    <mxGeometry x="1110" y="85" width="120" height="60" as="geometry"/>
                </mxCell>
                <mxCell id="20" value="پایان" style="ellipse;whiteSpace=wrap;html=1;rounded=0;fillColor=#0050ef;strokeColor=#001DBC;fontColor=#ffffff;" parent="7" vertex="1">
                    <mxGeometry x="2110" y="112.5" width="65" height="60" as="geometry"/>
                </mxCell>
                <mxCell id="81" style="edgeStyle=orthogonalEdgeStyle;rounded=0;orthogonalLoop=1;jettySize=auto;html=1;exitX=1;exitY=0.5;exitDx=0;exitDy=0;" parent="7" source="26" target="19" edge="1">
                    <mxGeometry relative="1" as="geometry"/>
                </mxCell>
                <mxCell id="26" value="&lt;font style=&quot;font-size: 16px&quot;&gt;انتخاب شرکت پستی&lt;/font&gt;" style="whiteSpace=wrap;html=1;rounded=0;fontColor=#ffffff;strokeColor=#2D7600;fillColor=#60a917;" parent="7" vertex="1">
                    <mxGeometry x="920" y="91.25" width="100" height="47.5" as="geometry"/>
                </mxCell>
                <mxCell id="28" style="edgeStyle=orthogonalEdgeStyle;rounded=0;orthogonalLoop=1;jettySize=auto;html=1;exitX=1;exitY=0.5;exitDx=0;exitDy=0;" parent="7" source="29" target="20" edge="1">
                    <mxGeometry relative="1" as="geometry"/>
                </mxCell>
                <mxCell id="29" value="نمایش کد رهگیری و فاکتور&amp;nbsp;" style="whiteSpace=wrap;html=1;rounded=0;fontColor=#ffffff;strokeColor=#2D7600;fillColor=#60a917;" parent="7" vertex="1">
                    <mxGeometry x="1960" y="112.5" width="120" height="60" as="geometry"/>
                </mxCell>
                <mxCell id="31" value="&lt;font style=&quot;font-size: 16px&quot;&gt;پرداخت از کیف پول&amp;nbsp;&lt;/font&gt;" style="whiteSpace=wrap;html=1;rounded=0;fontColor=#ffffff;strokeColor=#2D7600;fillColor=#60a917;" parent="7" vertex="1">
                    <mxGeometry x="1530" y="27.5" width="120" height="60" as="geometry"/>
                </mxCell>
                <mxCell id="34" value="&lt;font style=&quot;font-size: 19px&quot;&gt;پرداخت آنلاین&amp;nbsp;&lt;/font&gt;" style="whiteSpace=wrap;html=1;rounded=0;fontColor=#ffffff;strokeColor=#2D7600;fillColor=#60a917;" parent="7" vertex="1">
                    <mxGeometry x="1530" y="147.5" width="120" height="60" as="geometry"/>
                </mxCell>
                <mxCell id="36" value="کیف پول شارژ دارد" style="rhombus;whiteSpace=wrap;html=1;rounded=0;fontColor=#ffffff;strokeColor=#6F0000;fillColor=#a20025;" parent="7" vertex="1">
                    <mxGeometry x="1810" y="91.25" width="100" height="95" as="geometry"/>
                </mxCell>
                <mxCell id="37" value="" style="edgeStyle=orthogonalEdgeStyle;rounded=0;orthogonalLoop=1;jettySize=auto;html=1;" parent="7" source="31" target="36" edge="1">
                    <mxGeometry relative="1" as="geometry">
                        <Array as="points">
                            <mxPoint x="1680" y="65.5"/>
                            <mxPoint x="1680" y="65.5"/>
                        </Array>
                    </mxGeometry>
                </mxCell>
                <mxCell id="38" value="&lt;font style=&quot;font-size: 19px&quot; color=&quot;#191919&quot;&gt;خیر&lt;/font&gt;" style="text;html=1;strokeColor=none;fillColor=none;align=center;verticalAlign=middle;whiteSpace=wrap;rounded=0;" parent="7" vertex="1">
                    <mxGeometry x="1750" y="118.75" width="40" height="20" as="geometry"/>
                </mxCell>
                <mxCell id="39" value="&lt;font style=&quot;font-size: 19px&quot; color=&quot;#191919&quot;&gt;بله&lt;/font&gt;" style="text;html=1;strokeColor=none;fillColor=none;align=center;verticalAlign=middle;whiteSpace=wrap;rounded=0;" parent="7" vertex="1">
                    <mxGeometry x="1810" y="186.25" width="40" height="20" as="geometry"/>
                </mxCell>
                <mxCell id="40" value="پرداخت هزینه&amp;nbsp;" style="whiteSpace=wrap;html=1;rounded=0;fontColor=#ffffff;strokeColor=#2D7600;fillColor=#60a917;" parent="7" vertex="1">
                    <mxGeometry x="1890" y="200" width="120" height="60" as="geometry"/>
                </mxCell>
                <mxCell id="41" style="edgeStyle=orthogonalEdgeStyle;rounded=0;orthogonalLoop=1;jettySize=auto;html=1;exitX=0.5;exitY=1;exitDx=0;exitDy=0;entryX=0;entryY=0.25;entryDx=0;entryDy=0;" parent="7" source="36" target="40" edge="1">
                    <mxGeometry relative="1" as="geometry"/>
                </mxCell>
                <mxCell id="96" value="تایید قوانین سایت" style="rounded=0;whiteSpace=wrap;html=1;fillColor=#60a917;strokeColor=#2D7600;fontColor=#ffffff;" parent="7" vertex="1">
                    <mxGeometry x="757" y="186.25" width="94" height="44" as="geometry"/>
                </mxCell>
                <mxCell id="111" style="edgeStyle=orthogonalEdgeStyle;rounded=0;orthogonalLoop=1;jettySize=auto;html=1;exitX=0.5;exitY=0;exitDx=0;exitDy=0;entryX=0;entryY=0.75;entryDx=0;entryDy=0;" parent="7" source="109" target="31" edge="1">
                    <mxGeometry relative="1" as="geometry"/>
                </mxCell>
                <mxCell id="112" style="edgeStyle=orthogonalEdgeStyle;rounded=0;orthogonalLoop=1;jettySize=auto;html=1;exitX=0.5;exitY=1;exitDx=0;exitDy=0;entryX=0;entryY=0.5;entryDx=0;entryDy=0;" parent="7" source="109" target="34" edge="1">
                    <mxGeometry relative="1" as="geometry"/>
                </mxCell>
                <mxCell id="109" value="&lt;font style=&quot;font-size: 17px&quot;&gt;پرداخت هزینه&amp;nbsp;&lt;/font&gt;" style="rhombus;whiteSpace=wrap;html=1;rounded=0;fontColor=#ffffff;strokeColor=#6F0000;fillColor=#a20025;" parent="7" vertex="1">
                    <mxGeometry x="1340" y="41.25" width="150" height="147.5" as="geometry"/>
                </mxCell>
                <mxCell id="42" value="Postex" style="swimlane;startSize=20;horizontal=0;fillColor=#0050ef;fontColor=#ffffff;strokeColor=#001DBC;" parent="2" vertex="1">
                    <mxGeometry y="290" width="2190" height="250" as="geometry"/>
                </mxCell>
                <mxCell id="114" style="edgeStyle=orthogonalEdgeStyle;rounded=0;orthogonalLoop=1;jettySize=auto;html=1;exitX=1;exitY=0.5;exitDx=0;exitDy=0;entryX=0;entryY=0.5;entryDx=0;entryDy=0;" parent="42" source="45" target="47" edge="1">
                    <mxGeometry relative="1" as="geometry"/>
                </mxCell>
                <mxCell id="45" value="&lt;font style=&quot;font-size: 16px&quot;&gt;اعمال قرارداد مشتری&lt;/font&gt;" style="rounded=0;whiteSpace=wrap;html=1;fillColor=#60a917;strokeColor=#2D7600;fontColor=#ffffff;" parent="42" vertex="1">
                    <mxGeometry x="774" y="85" width="120" height="60" as="geometry"/>
                </mxCell>
                <mxCell id="47" value="&lt;font style=&quot;font-size: 18px&quot;&gt;نمایش شرکت های پستی&lt;/font&gt;" style="whiteSpace=wrap;html=1;rounded=0;fontColor=#ffffff;strokeColor=#2D7600;fillColor=#60a917;" parent="42" vertex="1">
                    <mxGeometry x="1000" y="85" width="120" height="60" as="geometry"/>
                </mxCell>
                <mxCell id="88" style="edgeStyle=orthogonalEdgeStyle;rounded=0;orthogonalLoop=1;jettySize=auto;html=1;exitX=0.5;exitY=1;exitDx=0;exitDy=0;entryX=0;entryY=0.5;entryDx=0;entryDy=0;" parent="42" source="82" target="87" edge="1">
                    <mxGeometry relative="1" as="geometry"/>
                </mxCell>
                <mxCell id="82" value="تایید سفارش توسط&amp;nbsp;" style="rhombus;whiteSpace=wrap;html=1;rounded=0;fontColor=#ffffff;strokeColor=#6F0000;fillColor=#a20025;" parent="42" vertex="1">
                    <mxGeometry x="1290" y="57.5" width="150" height="135" as="geometry"/>
                </mxCell>
                <mxCell id="85" value="&lt;font style=&quot;font-size: 21px&quot; color=&quot;#000000&quot;&gt;بله&lt;/font&gt;" style="text;html=1;strokeColor=none;fillColor=none;align=center;verticalAlign=middle;whiteSpace=wrap;rounded=0;" parent="42" vertex="1">
                    <mxGeometry x="1420" y="57.5" width="40" height="20" as="geometry"/>
                </mxCell>
                <mxCell id="87" value="&lt;font style=&quot;font-size: 17px&quot;&gt;کنسل شدن سفارش&lt;/font&gt;" style="rounded=0;whiteSpace=wrap;html=1;fillColor=#60a917;strokeColor=#2D7600;fontColor=#ffffff;" parent="42" vertex="1">
                    <mxGeometry x="1500" y="110" width="120" height="60" as="geometry"/>
                </mxCell>
                <mxCell id="100" value="" style="shape=flexArrow;endArrow=classic;html=1;endWidth=46.74418604651163;endSize=6.96046511627907;width=35.58139534883721;" parent="42" edge="1">
                    <mxGeometry width="50" height="50" relative="1" as="geometry">
                        <mxPoint x="930" y="192.49999999999997" as="sourcePoint"/>
                        <mxPoint x="990" y="192.70000000000002" as="targetPoint"/>
                        <Array as="points"/>
                    </mxGeometry>
                </mxCell>
                <mxCell id="101" value="&lt;font style=&quot;font-size: 15px&quot;&gt;BC1&lt;/font&gt;" style="edgeLabel;html=1;align=center;verticalAlign=middle;resizable=0;points=[];" parent="100" vertex="1" connectable="0">
                    <mxGeometry x="0.1188" y="-2" relative="1" as="geometry">
                        <mxPoint x="-7" y="-2" as="offset"/>
                    </mxGeometry>
                </mxCell>
                <mxCell id="191" style="edgeStyle=orthogonalEdgeStyle;rounded=0;orthogonalLoop=1;jettySize=auto;html=1;exitX=1;exitY=0.5;exitDx=0;exitDy=0;" parent="42" source="190" target="82" edge="1">
                    <mxGeometry relative="1" as="geometry"/>
                </mxCell>
                <mxCell id="190" value="&lt;font style=&quot;font-size: 18px&quot;&gt;نمایش پیش فاکتور&lt;/font&gt;" style="rounded=0;whiteSpace=wrap;html=1;fillColor=#60a917;strokeColor=#2D7600;fontColor=#ffffff;" parent="42" vertex="1">
                    <mxGeometry x="1140" y="85" width="120" height="60" as="geometry"/>
                </mxCell>
                <mxCell id="50" value="vendor" style="swimlane;startSize=20;horizontal=0;fillColor=#e3c800;fontColor=#000000;strokeColor=#B09500;" parent="2" vertex="1">
                    <mxGeometry y="540" width="2190" height="190" as="geometry"/>
                </mxCell>
                <mxCell id="51" value="&lt;font style=&quot;font-size: 17px&quot;&gt;&amp;nbsp;استعلام قیمت از شرکت پستی&lt;/font&gt;" style="whiteSpace=wrap;html=1;fillColor=#60a917;strokeColor=#2D7600;fontColor=#ffffff;" parent="50" vertex="1">
                    <mxGeometry x="610" y="35" width="170" height="60" as="geometry"/>
                </mxCell>
                <mxCell id="89" value="&lt;font style=&quot;font-size: 17px&quot;&gt;دریافت کد رهگیری&lt;/font&gt;" style="whiteSpace=wrap;html=1;fillColor=#60a917;strokeColor=#2D7600;fontColor=#ffffff;" parent="50" vertex="1">
                    <mxGeometry x="1950" y="55" width="120" height="60" as="geometry"/>
                </mxCell>
                <mxCell id="95" style="edgeStyle=orthogonalEdgeStyle;rounded=0;orthogonalLoop=1;jettySize=auto;html=1;exitX=0.75;exitY=1;exitDx=0;exitDy=0;entryX=0.25;entryY=0;entryDx=0;entryDy=0;" parent="2" source="40" target="89" edge="1">
                    <mxGeometry relative="1" as="geometry"/>
                </mxCell>
                <mxCell id="98" style="edgeStyle=orthogonalEdgeStyle;rounded=0;orthogonalLoop=1;jettySize=auto;html=1;exitX=0;exitY=0.5;exitDx=0;exitDy=0;entryX=0.25;entryY=0;entryDx=0;entryDy=0;" parent="2" source="96" target="51" edge="1">
                    <mxGeometry relative="1" as="geometry">
                        <mxPoint x="650" y="460" as="targetPoint"/>
                    </mxGeometry>
                </mxCell>
                <mxCell id="105" style="edgeStyle=orthogonalEdgeStyle;rounded=0;orthogonalLoop=1;jettySize=auto;html=1;exitX=0.5;exitY=0;exitDx=0;exitDy=0;" parent="2" source="47" target="26" edge="1">
                    <mxGeometry relative="1" as="geometry"/>
                </mxCell>
                <mxCell id="110" style="edgeStyle=orthogonalEdgeStyle;rounded=0;orthogonalLoop=1;jettySize=auto;html=1;exitX=1;exitY=0.5;exitDx=0;exitDy=0;entryX=0;entryY=0.5;entryDx=0;entryDy=0;" parent="2" source="82" target="109" edge="1">
                    <mxGeometry relative="1" as="geometry"/>
                </mxCell>
                <mxCell id="61" value="ثبت اطلاعات فرستنده" style="swimlane;fontColor=#000000;" parent="1" vertex="1">
                    <mxGeometry x="70" y="1080" width="400" height="310" as="geometry">
                        <mxRectangle x="130" y="1140" width="90" height="23" as="alternateBounds"/>
                    </mxGeometry>
                </mxCell>
                <mxCell id="106" value="&lt;span style=&quot;color: rgb(255 , 255 , 255) ; font-size: 25px&quot;&gt;&lt;font color=&quot;#000000&quot;&gt;استان&lt;br&gt;شهر&lt;br&gt;&lt;/font&gt;&lt;/span&gt;&lt;span style=&quot;color: rgb(0 , 0 , 0) ; font-size: 25px&quot;&gt;آدرس جغرافیایی فرستنده از روی نقشه&lt;/span&gt;&lt;span style=&quot;color: rgb(255 , 255 , 255) ; font-size: 25px&quot;&gt;&lt;font color=&quot;#000000&quot;&gt;&amp;nbsp;&lt;br&gt;کد پستی&lt;br&gt;&amp;nbsp;شماره تماس&lt;br&gt;آدرس متنی&lt;br&gt;نام و نام خانوادگی&lt;br&gt;نام شرکت&amp;nbsp;&lt;br&gt;پست الکترونیک&lt;/font&gt;&lt;/span&gt;" style="text;html=1;align=right;verticalAlign=middle;resizable=0;points=[];autosize=1;strokeColor=none;" parent="61" vertex="1">
                    <mxGeometry y="80" width="330" height="160" as="geometry"/>
                </mxCell>
                <mxCell id="115" value="" style="shape=ext;double=1;whiteSpace=wrap;html=1;aspect=fixed;fillColor=#a20025;strokeColor=#6F0000;fontColor=#ffffff;" parent="61" vertex="1">
                    <mxGeometry x="350" y="30" width="20" height="20" as="geometry"/>
                </mxCell>
                <mxCell id="116" value="" style="shape=ext;double=1;whiteSpace=wrap;html=1;aspect=fixed;fillColor=#a20025;strokeColor=#6F0000;fontColor=#ffffff;" parent="61" vertex="1">
                    <mxGeometry x="350" y="60" width="20" height="20" as="geometry"/>
                </mxCell>
                <mxCell id="117" value="" style="shape=ext;double=1;whiteSpace=wrap;html=1;aspect=fixed;fillColor=#a20025;strokeColor=#6F0000;fontColor=#ffffff;" parent="61" vertex="1">
                    <mxGeometry x="350" y="120" width="20" height="20" as="geometry"/>
                </mxCell>
                <mxCell id="118" value="" style="shape=ext;double=1;whiteSpace=wrap;html=1;aspect=fixed;fillColor=#a20025;strokeColor=#6F0000;fontColor=#ffffff;" parent="61" vertex="1">
                    <mxGeometry x="350" y="150" width="20" height="20" as="geometry"/>
                </mxCell>
                <mxCell id="119" value="" style="shape=ext;double=1;whiteSpace=wrap;html=1;aspect=fixed;fillColor=#a20025;strokeColor=#6F0000;fontColor=#ffffff;" parent="61" vertex="1">
                    <mxGeometry x="350" y="180" width="20" height="20" as="geometry"/>
                </mxCell>
                <mxCell id="120" value="" style="shape=ext;double=1;whiteSpace=wrap;html=1;aspect=fixed;fillColor=#a20025;strokeColor=#6F0000;fontColor=#ffffff;" parent="61" vertex="1">
                    <mxGeometry x="350" y="210" width="20" height="20" as="geometry"/>
                </mxCell>
                <mxCell id="121" value="" style="shape=ext;double=1;whiteSpace=wrap;html=1;aspect=fixed;" parent="61" vertex="1">
                    <mxGeometry x="350" y="240" width="20" height="20" as="geometry"/>
                </mxCell>
                <mxCell id="122" value="" style="shape=ext;double=1;whiteSpace=wrap;html=1;aspect=fixed;" parent="61" vertex="1">
                    <mxGeometry x="350" y="270" width="20" height="20" as="geometry"/>
                </mxCell>
                <mxCell id="123" value="" style="shape=ext;double=1;whiteSpace=wrap;html=1;aspect=fixed;fillColor=#a20025;strokeColor=#6F0000;fontColor=#ffffff;" parent="61" vertex="1">
                    <mxGeometry x="350" y="90" width="20" height="20" as="geometry"/>
                </mxCell>
                <mxCell id="63" value="انتخاب خدمات پستی" style="swimlane;startSize=23;fontColor=#000000;" parent="1" vertex="1">
                    <mxGeometry x="1430" y="1105" width="310" height="235" as="geometry"/>
                </mxCell>
                <mxCell id="64" value="&lt;div style=&quot;font-size: 25px&quot;&gt;&lt;font style=&quot;font-size: 25px&quot; color=&quot;#000000&quot;&gt;چاپ فاکتور&lt;/font&gt;&lt;/div&gt;&lt;div style=&quot;font-size: 25px&quot;&gt;&lt;span&gt;&lt;font style=&quot;font-size: 25px&quot; color=&quot;#000000&quot;&gt;کد تخفیف&lt;/font&gt;&lt;/span&gt;&lt;/div&gt;&lt;div style=&quot;font-size: 25px&quot;&gt;&lt;span&gt;&lt;font style=&quot;font-size: 25px&quot; color=&quot;#000000&quot;&gt;فعال کردن اطلاع رسانی پیامکی&lt;/font&gt;&lt;/span&gt;&lt;/div&gt;&lt;div style=&quot;font-size: 25px&quot;&gt;&lt;font style=&quot;font-size: 25px&quot; color=&quot;#000000&quot;&gt;چاپ برند تجاری&amp;nbsp;&lt;/font&gt;&lt;/div&gt;" style="text;html=1;align=right;verticalAlign=middle;resizable=0;points=[];autosize=1;strokeColor=none;fontColor=#FFFFFF;" parent="63" vertex="1">
                    <mxGeometry x="-10" y="87.5" width="280" height="60" as="geometry"/>
                </mxCell>
                <mxCell id="176" value="" style="shape=ext;double=1;whiteSpace=wrap;html=1;aspect=fixed;fillColor=#a20025;strokeColor=#6F0000;fontColor=#ffffff;" parent="63" vertex="1">
                    <mxGeometry x="280" y="65" width="20" height="20" as="geometry"/>
                </mxCell>
                <mxCell id="177" value="" style="shape=ext;double=1;whiteSpace=wrap;html=1;aspect=fixed;" parent="63" vertex="1">
                    <mxGeometry x="280" y="100" width="20" height="20" as="geometry"/>
                </mxCell>
                <mxCell id="178" value="" style="shape=ext;double=1;whiteSpace=wrap;html=1;aspect=fixed;" parent="63" vertex="1">
                    <mxGeometry x="280" y="150" width="20" height="20" as="geometry"/>
                </mxCell>
                <mxCell id="179" value="" style="shape=ext;double=1;whiteSpace=wrap;html=1;aspect=fixed;" parent="63" vertex="1">
                    <mxGeometry x="280" y="127.5" width="20" height="20" as="geometry"/>
                </mxCell>
                <mxCell id="65" value=" ثبت اطلاعات  مرسوله" style="swimlane;fontColor=#000000;" parent="1" vertex="1">
                    <mxGeometry x="550" y="1080" width="360" height="350" as="geometry"/>
                </mxCell>
                <mxCell id="66" value="&lt;font style=&quot;font-size: 24px&quot;&gt;&lt;br&gt;&lt;/font&gt;" style="text;html=1;align=right;verticalAlign=middle;resizable=0;points=[];autosize=1;strokeColor=none;fontColor=#FFFFFF;" parent="65" vertex="1">
                    <mxGeometry x="330" y="120" width="20" height="20" as="geometry"/>
                </mxCell>
                <mxCell id="107" value="&lt;font color=&quot;#000000&quot; style=&quot;font-size: 24px&quot;&gt;محتوایات مرسوله&amp;nbsp;&lt;br&gt;&lt;/font&gt;&lt;font style=&quot;color: rgb(255 , 255 , 255) ; font-size: 24px&quot;&gt;&lt;font color=&quot;#000000&quot;&gt;ابعاد مرسوله&lt;br&gt;ارزش ریالی کالا&lt;br&gt;تعداد بسته ها&lt;br&gt;برند و مدل&amp;nbsp;&lt;br&gt;لینک کالای خارجی&lt;br&gt;وزن مرسوله&lt;br&gt;نیاز به کارتون&amp;nbsp;&amp;nbsp;&lt;br&gt;انتخاب بیمه&amp;nbsp;&lt;br&gt;&lt;/font&gt;&lt;span style=&quot;color: rgb(0 , 0 , 0) ; font-size: 25px&quot;&gt;ارسال عکس مرسوله&lt;/span&gt;&lt;font color=&quot;#000000&quot;&gt;&lt;br&gt;&lt;/font&gt;&lt;/font&gt;" style="text;html=1;align=right;verticalAlign=middle;resizable=0;points=[];autosize=1;strokeColor=none;" parent="65" vertex="1">
                    <mxGeometry x="110" y="85" width="190" height="180" as="geometry"/>
                </mxCell>
                <mxCell id="160" value="" style="shape=ext;double=1;whiteSpace=wrap;html=1;aspect=fixed;fillColor=#a20025;strokeColor=#6F0000;fontColor=#ffffff;" parent="65" vertex="1">
                    <mxGeometry x="310" y="30" width="20" height="20" as="geometry"/>
                </mxCell>
                <mxCell id="161" value="" style="shape=ext;double=1;whiteSpace=wrap;html=1;aspect=fixed;fillColor=#a20025;strokeColor=#6F0000;fontColor=#ffffff;" parent="65" vertex="1">
                    <mxGeometry x="310" y="65" width="20" height="20" as="geometry"/>
                </mxCell>
                <mxCell id="164" value="" style="shape=ext;double=1;whiteSpace=wrap;html=1;aspect=fixed;fillColor=#a20025;strokeColor=#6F0000;fontColor=#ffffff;" parent="65" vertex="1">
                    <mxGeometry x="310" y="90" width="20" height="20" as="geometry"/>
                </mxCell>
                <mxCell id="165" value="" style="shape=ext;double=1;whiteSpace=wrap;html=1;aspect=fixed;" parent="65" vertex="1">
                    <mxGeometry x="310" y="150" width="20" height="20" as="geometry"/>
                </mxCell>
                <mxCell id="173" value="" style="shape=ext;double=1;whiteSpace=wrap;html=1;aspect=fixed;fillColor=#a20025;strokeColor=#6F0000;fontColor=#ffffff;" parent="65" vertex="1">
                    <mxGeometry x="310" y="120" width="20" height="20" as="geometry"/>
                </mxCell>
                <mxCell id="162" value="" style="shape=ext;double=1;whiteSpace=wrap;html=1;aspect=fixed;fillColor=#a20025;strokeColor=#6F0000;fontColor=#ffffff;" parent="65" vertex="1">
                    <mxGeometry x="310" y="265" width="20" height="20" as="geometry"/>
                </mxCell>
                <mxCell id="163" value="" style="shape=ext;double=1;whiteSpace=wrap;html=1;aspect=fixed;fillColor=#a20025;strokeColor=#6F0000;fontColor=#ffffff;" parent="65" vertex="1">
                    <mxGeometry x="310" y="210" width="20" height="20" as="geometry"/>
                </mxCell>
                <mxCell id="175" value="" style="shape=ext;double=1;whiteSpace=wrap;html=1;aspect=fixed;" parent="65" vertex="1">
                    <mxGeometry x="310" y="240" width="20" height="20" as="geometry"/>
                </mxCell>
                <mxCell id="174" value="" style="shape=ext;double=1;whiteSpace=wrap;html=1;aspect=fixed;" parent="65" vertex="1">
                    <mxGeometry x="310" y="180" width="20" height="20" as="geometry"/>
                </mxCell>
                <mxCell id="67" value="ثبت اطلاعات گیرنده " style="swimlane;fontColor=#000000;" parent="1" vertex="1">
                    <mxGeometry x="940" y="1105" width="410" height="360" as="geometry"/>
                </mxCell>
                <mxCell id="68" value="&lt;span style=&quot;font-size: 25px&quot;&gt;&lt;font color=&quot;#000000&quot;&gt;استان&lt;br&gt;شهر&lt;br&gt;&lt;/font&gt;&lt;/span&gt;&lt;span style=&quot;color: rgb(0 , 0 , 0) ; font-size: 25px&quot;&gt;آدرس جغرافیایی فرستنده از روی نقشه&lt;/span&gt;&lt;span style=&quot;font-size: 25px&quot;&gt;&lt;font color=&quot;#000000&quot;&gt;&amp;nbsp;&lt;br&gt;کد پستی&lt;br&gt;&amp;nbsp;شماره تماس&lt;br&gt;آدرس متنی&lt;br&gt;نام و نام خانوادگی&lt;br&gt;نام شرکت&amp;nbsp;&lt;br&gt;پست الکترونیک&lt;br&gt;&lt;br&gt;&lt;/font&gt;&lt;/span&gt;" style="text;html=1;align=right;verticalAlign=middle;resizable=0;points=[];autosize=1;strokeColor=none;fontColor=#FFFFFF;" parent="67" vertex="1">
                    <mxGeometry y="90" width="330" height="180" as="geometry"/>
                </mxCell>
                <mxCell id="69" value="bank" style="swimlane;startSize=20;horizontal=0;fillColor=#e3c800;fontColor=#000000;strokeColor=#B09500;" parent="1" vertex="1">
                    <mxGeometry x="80" y="840" width="2190" height="170" as="geometry"/>
                </mxCell>
                <mxCell id="70" value="&lt;font style=&quot;font-size: 15px&quot;&gt;اتصال به درگاه بانک&lt;/font&gt;" style="whiteSpace=wrap;html=1;rounded=0;fontColor=#ffffff;strokeColor=#2D7600;fillColor=#60a917;" parent="69" vertex="1">
                    <mxGeometry x="1610" y="55" width="120" height="60" as="geometry"/>
                </mxCell>
                <mxCell id="71" value="&lt;font style=&quot;font-size: 20px&quot;&gt;شارژ کیف پول&lt;/font&gt;" style="whiteSpace=wrap;html=1;rounded=0;fontColor=#ffffff;strokeColor=#2D7600;fillColor=#60a917;" parent="69" vertex="1">
                    <mxGeometry x="1800" y="80" width="120" height="60" as="geometry"/>
                </mxCell>
                <mxCell id="72" value="" style="edgeStyle=orthogonalEdgeStyle;rounded=0;orthogonalLoop=1;jettySize=auto;html=1;" parent="1" source="34" target="70" edge="1">
                    <mxGeometry relative="1" as="geometry">
                        <Array as="points">
                            <mxPoint x="1750" y="297"/>
                            <mxPoint x="1750" y="880"/>
                        </Array>
                    </mxGeometry>
                </mxCell>
                <mxCell id="74" value="" style="edgeStyle=orthogonalEdgeStyle;rounded=0;orthogonalLoop=1;jettySize=auto;html=1;" parent="1" source="36" target="71" edge="1">
                    <mxGeometry relative="1" as="geometry">
                        <Array as="points">
                            <mxPoint x="1897" y="470"/>
                            <mxPoint x="1897" y="470"/>
                        </Array>
                    </mxGeometry>
                </mxCell>
                <mxCell id="91" style="edgeStyle=orthogonalEdgeStyle;rounded=0;orthogonalLoop=1;jettySize=auto;html=1;exitX=0.75;exitY=0;exitDx=0;exitDy=0;" parent="1" source="89" edge="1">
                    <mxGeometry relative="1" as="geometry">
                        <mxPoint x="2120" y="290" as="targetPoint"/>
                    </mxGeometry>
                </mxCell>
                <mxCell id="93" style="edgeStyle=orthogonalEdgeStyle;rounded=0;orthogonalLoop=1;jettySize=auto;html=1;exitX=0.75;exitY=0;exitDx=0;exitDy=0;entryX=0;entryY=0.5;entryDx=0;entryDy=0;" parent="1" source="70" target="89" edge="1">
                    <mxGeometry relative="1" as="geometry"/>
                </mxCell>
                <mxCell id="94" style="edgeStyle=orthogonalEdgeStyle;rounded=0;orthogonalLoop=1;jettySize=auto;html=1;exitX=0.75;exitY=0;exitDx=0;exitDy=0;entryX=0;entryY=0.75;entryDx=0;entryDy=0;" parent="1" source="71" target="40" edge="1">
                    <mxGeometry relative="1" as="geometry">
                        <Array as="points">
                            <mxPoint x="1950" y="920"/>
                            <mxPoint x="1950" y="365"/>
                        </Array>
                    </mxGeometry>
                </mxCell>
                <mxCell id="151" value="" style="shape=ext;double=1;whiteSpace=wrap;html=1;aspect=fixed;fillColor=#a20025;strokeColor=#6F0000;fontColor=#ffffff;" parent="1" vertex="1">
                    <mxGeometry x="1280" y="1140" width="20" height="20" as="geometry"/>
                </mxCell>
                <mxCell id="152" value="" style="shape=ext;double=1;whiteSpace=wrap;html=1;aspect=fixed;fillColor=#a20025;strokeColor=#6F0000;fontColor=#ffffff;" parent="1" vertex="1">
                    <mxGeometry x="1280" y="1170" width="20" height="20" as="geometry"/>
                </mxCell>
                <mxCell id="153" value="" style="shape=ext;double=1;whiteSpace=wrap;html=1;aspect=fixed;fillColor=#a20025;strokeColor=#6F0000;fontColor=#ffffff;" parent="1" vertex="1">
                    <mxGeometry x="1280" y="1230" width="20" height="20" as="geometry"/>
                </mxCell>
                <mxCell id="154" value="" style="shape=ext;double=1;whiteSpace=wrap;html=1;aspect=fixed;fillColor=#a20025;strokeColor=#6F0000;fontColor=#ffffff;" parent="1" vertex="1">
                    <mxGeometry x="1280" y="1260" width="20" height="20" as="geometry"/>
                </mxCell>
                <mxCell id="155" value="" style="shape=ext;double=1;whiteSpace=wrap;html=1;aspect=fixed;fillColor=#a20025;strokeColor=#6F0000;fontColor=#ffffff;" parent="1" vertex="1">
                    <mxGeometry x="1280" y="1290" width="20" height="20" as="geometry"/>
                </mxCell>
                <mxCell id="156" value="" style="shape=ext;double=1;whiteSpace=wrap;html=1;aspect=fixed;fillColor=#a20025;strokeColor=#6F0000;fontColor=#ffffff;" parent="1" vertex="1">
                    <mxGeometry x="1280" y="1320" width="20" height="20" as="geometry"/>
                </mxCell>
                <mxCell id="157" value="" style="shape=ext;double=1;whiteSpace=wrap;html=1;aspect=fixed;" parent="1" vertex="1">
                    <mxGeometry x="1280" y="1350" width="20" height="20" as="geometry"/>
                </mxCell>
                <mxCell id="158" value="" style="shape=ext;double=1;whiteSpace=wrap;html=1;aspect=fixed;" parent="1" vertex="1">
                    <mxGeometry x="1280" y="1380" width="20" height="20" as="geometry"/>
                </mxCell>
                <mxCell id="159" value="" style="shape=ext;double=1;whiteSpace=wrap;html=1;aspect=fixed;fillColor=#a20025;strokeColor=#6F0000;fontColor=#ffffff;" parent="1" vertex="1">
                    <mxGeometry x="1280" y="1200" width="20" height="20" as="geometry"/>
                </mxCell>
                <mxCell id="172" value="" style="shape=ext;double=1;whiteSpace=wrap;html=1;aspect=fixed;fillColor=#a20025;strokeColor=#6F0000;fontColor=#ffffff;" parent="1" vertex="1">
                    <mxGeometry x="860" y="1380" width="20" height="20" as="geometry"/>
                </mxCell>
                <mxCell id="184" value="قرارداد مشتری" style="swimlane;fontColor=#000000;" parent="1" vertex="1">
                    <mxGeometry x="1830" y="1068.75" width="340" height="307.5" as="geometry">
                        <mxRectangle x="130" y="1140" width="90" height="23" as="alternateBounds"/>
                    </mxGeometry>
                </mxCell>
                <mxCell id="185" value="&lt;font color=&quot;#000000&quot;&gt;&lt;span style=&quot;font-size: 25px&quot;&gt;نماینده&lt;br&gt;مشتری&lt;br&gt;جمع اور&lt;br&gt;پرینت&lt;br&gt;تخفیف ها&amp;nbsp;&lt;br&gt;بازاریاب&lt;br&gt;لیزینگ&lt;br&gt;لفاف و بسته بندی&lt;br&gt;انبارداری&lt;br&gt;&lt;br&gt;&lt;/span&gt;&lt;/font&gt;" style="text;html=1;align=right;verticalAlign=middle;resizable=0;points=[];autosize=1;strokeColor=none;fontColor=#FFFFFF;" parent="184" vertex="1">
                    <mxGeometry x="143" y="95" width="160" height="180" as="geometry"/>
                </mxCell>
                <mxCell id="188" value="&lt;font style=&quot;font-size: 21px&quot; color=&quot;#000000&quot;&gt;خیر&lt;/font&gt;" style="text;html=1;strokeColor=none;fillColor=none;align=center;verticalAlign=middle;whiteSpace=wrap;rounded=0;" parent="1" vertex="1">
                    <mxGeometry x="1480" y="580" width="40" height="20" as="geometry"/>
                </mxCell>
                <mxCell id="192" style="edgeStyle=none;html=1;exitX=0.75;exitY=1;exitDx=0;exitDy=0;" parent="1" source="45" edge="1">
                    <mxGeometry relative="1" as="geometry">
                        <mxPoint x="1010" y="590" as="targetPoint"/>
                    </mxGeometry>
                </mxCell>
            </root>
        </mxGraphModel>
    </diagram>
</mxfile>